<svg width="50" height="22" viewBox="0 0 50 22" fill="none" xmlns="http://www.w3.org/2000/svg">
<path opacity="0.3" d="M19.0824 9.59729H10.7241V12.9828H14.7757C14.4418 13.7604 13.9621 14.4388 13.3773 14.9888L13.3793 14.991H13.3752C12.4504 15.8521 11.2624 16.3682 9.9631 16.3682C7.7106 16.3682 5.78394 14.8085 5.00882 12.6041C4.77203 11.9324 4.64251 11.2044 4.64251 10.4425C4.64251 9.21411 4.97846 8.07586 5.5512 7.12919L5.65037 6.98268C6.61168 5.48604 8.18215 4.51684 9.96108 4.51684C11.3818 4.51684 12.675 5.13443 13.6242 6.15097L16.162 2.99315C14.5389 1.31845 12.3573 0.286133 9.9631 0.286133C6.81608 0.286133 4.04144 2.06452 2.40013 4.76477C1.41656 6.38763 0.841797 8.34183 0.841797 10.4448C0.841797 12.1127 1.20203 13.686 1.84156 15.0744C3.35334 18.3562 6.42144 20.6034 9.96108 20.6034C12.3917 20.6034 14.5996 19.5463 16.2349 17.8198L16.2329 17.8175C17.9875 15.9738 19.0824 13.3479 19.0824 10.447V9.59729Z" fill="#FAFAFA"/>
<g opacity="0.3">
<path d="M19.0824 9.59729H10.7241V12.9828H14.7757C14.4418 13.7604 13.9621 14.4388 13.3773 14.9888L13.3793 14.991H13.3752C12.4504 15.8521 11.2624 16.3682 9.9631 16.3682C7.7106 16.3682 5.78394 14.8085 5.00882 12.6041C4.77203 11.9324 4.64251 11.2044 4.64251 10.4425C4.64251 9.21411 4.97846 8.07586 5.5512 7.12919L5.65037 6.98268C6.61168 5.48604 8.18215 4.51684 9.96108 4.51684C11.3818 4.51684 12.675 5.13443 13.6242 6.15097L16.162 2.99315C14.5389 1.31845 12.3573 0.286133 9.9631 0.286133C6.81608 0.286133 4.04144 2.06452 2.40013 4.76477C1.41656 6.38763 0.841797 8.34183 0.841797 10.4448C0.841797 12.1127 1.20203 13.686 1.84156 15.0744C3.35334 18.3562 6.42144 20.6034 9.96108 20.6034C12.3917 20.6034 14.5996 19.5463 16.2349 17.8198L16.2329 17.8175C17.9875 15.9738 19.0824 13.3479 19.0824 10.447V9.59729Z" fill="#FAFAFA"/>
<path d="M19.0824 9.59729H10.7241V12.9828H14.7757C14.4418 13.7604 13.9621 14.4388 13.3773 14.9888L13.3793 14.991H13.3752C12.4504 15.8521 11.2624 16.3682 9.9631 16.3682C7.7106 16.3682 5.78394 14.8085 5.00882 12.6041C4.77203 11.9324 4.64251 11.2044 4.64251 10.4425C4.64251 9.21411 4.97846 8.07586 5.5512 7.12919L5.65037 6.98268C6.61168 5.48604 8.18215 4.51684 9.96108 4.51684C11.3818 4.51684 12.675 5.13443 13.6242 6.15097L16.162 2.99315C14.5389 1.31845 12.3573 0.286133 9.9631 0.286133C6.81608 0.286133 4.04144 2.06452 2.40013 4.76477C1.41656 6.38763 0.841797 8.34183 0.841797 10.4448C0.841797 12.1127 1.20203 13.686 1.84156 15.0744C3.35334 18.3562 6.42144 20.6034 9.96108 20.6034C12.3917 20.6034 14.5996 19.5463 16.2349 17.8198L16.2329 17.8175C17.9875 15.9738 19.0824 13.3479 19.0824 10.447V9.59729Z" fill="white"/>
</g>
<path opacity="0.3" d="M19.0824 9.59729H10.7241V12.9828H14.7757C14.4418 13.7604 13.9621 14.4388 13.3773 14.9888L13.3793 14.991H13.3752C12.4504 15.8521 11.2624 16.3682 9.9631 16.3682C7.7106 16.3682 5.78394 14.8085 5.00882 12.6041C4.77203 11.9324 4.64251 11.2044 4.64251 10.4425C4.64251 9.21411 4.97846 8.07586 5.5512 7.12919L5.65037 6.98268C6.61168 5.48604 8.18215 4.51684 9.96108 4.51684C11.3818 4.51684 12.675 5.13443 13.6242 6.15097L16.162 2.99315C14.5389 1.31845 12.3573 0.286133 9.9631 0.286133C6.81608 0.286133 4.04144 2.06452 2.40013 4.76477C1.41656 6.38763 0.841797 8.34183 0.841797 10.4448C0.841797 12.1127 1.20203 13.686 1.84156 15.0744C3.35334 18.3562 6.42144 20.6034 9.96108 20.6034C12.3917 20.6034 14.5996 19.5463 16.2349 17.8198L16.2329 17.8175C17.9875 15.9738 19.0824 13.3479 19.0824 10.447V9.59729Z" fill="white"/>
<path d="M43.4734 16.6091L39.8852 6.11012H42.0648L44.5156 14.1004L47.521 6.11012H49.4133C49.4133 6.11012 43.5442 21.5318 43.4956 21.6603L41.6034 21.7144C41.6378 21.6265 43.4734 16.6091 43.4734 16.6091ZM37.3352 12.5497C37.3352 13.8503 36.3071 14.7766 34.9471 14.7766C33.8785 14.7766 33.1965 14.2244 33.1965 13.3792C33.1965 12.5069 33.8522 11.9997 35.1049 11.9186L37.3412 11.736L37.3352 12.5497ZM35.4773 6.11012C33.3462 6.11012 31.7697 7.41968 31.711 9.21835H33.5203C33.6701 8.36184 34.4067 7.80285 35.4186 7.80285C36.6451 7.80285 37.3392 8.41593 37.3392 9.54968V10.3318L34.8297 10.4761C32.5003 10.6271 31.2395 11.6526 31.2395 13.4333C31.2395 15.2319 32.5408 16.4265 34.4067 16.4265C35.6676 16.4265 36.8373 15.7413 37.3676 14.6549H37.408L37.4141 16.4265H39.2659V9.40768C39.2679 7.40165 37.7743 6.11012 35.4773 6.11012ZM26.3014 9.54743H23.8303V4.04774H26.3014C28.0641 4.04774 29.1954 4.97412 29.1954 6.79984C29.1954 8.62555 28.0722 9.54743 26.3014 9.54743ZM26.8923 1.98535H21.9785V16.4265H23.8303V11.6121H26.8235C29.3938 11.6121 31.2395 9.61505 31.2395 6.79758C31.2395 3.98012 29.4282 1.98535 26.8923 1.98535Z" fill="#FAFAFA"/>
</svg>
