<svg width="69" height="22" viewBox="0 0 69 22" fill="none" xmlns="http://www.w3.org/2000/svg">
<path d="M23.4001 10.1712V3.68725H29.1341C30.3163 3.68725 32.2183 3.84736 32.2183 5.38829C32.2183 6.14551 31.5538 6.68003 30.7809 6.87385C31.744 7.16277 32.2183 7.69487 32.2183 8.4232C32.2183 10.0123 30.4126 10.164 29.1341 10.1688H23.4001V10.1712ZM25.5057 7.43966L26.1076 6.44527C26.1836 6.33431 26.2855 6.24346 26.4044 6.18055C26.5233 6.11764 26.6557 6.08455 26.7902 6.08412H29.1341C29.553 6.08412 29.8937 5.89271 29.8937 5.56766C29.8937 5.24262 29.5554 5.0476 29.1341 5.0476H25.5057V7.43966ZM25.5057 7.43966V10.1688L26.1076 9.1732C26.1838 9.06238 26.2856 8.97165 26.4045 8.90876C26.5234 8.84587 26.6557 8.81268 26.7902 8.81205H29.1028C29.541 8.81927 29.8877 8.50868 29.8877 8.12946C29.8877 7.75025 29.5482 7.44447 29.1028 7.44447L25.5057 7.43966ZM37.3034 5.25226L34.4635 10.176H31.9908L35.9539 3.68725H38.6626L42.622 10.1712H40.1493L39.4848 9.0155H35.8155L36.4246 8.02112C36.5014 7.91087 36.6034 7.82057 36.7221 7.75775C36.8408 7.69493 36.9729 7.6614 37.1072 7.65996H38.6963L37.3034 5.25226ZM54.5185 5.25226L51.6786 10.176H49.2023L53.1642 3.68725H55.8728L59.8311 10.1712H57.3644L56.6987 9.0155H53.0305L53.6325 8.02112C53.7085 7.9107 53.81 7.82023 53.9284 7.75736C54.0468 7.69449 54.1786 7.66108 54.3126 7.65996H55.9041L54.5173 5.25226H54.5185ZM46.4527 8.81205C46.9342 8.81205 47.3183 8.57971 47.3183 8.1078V3.68725H49.4142V8.30282C49.4142 9.7017 48.4884 10.1712 47.2761 10.1712H43.7729C43.6388 10.1696 43.507 10.136 43.3885 10.0731C43.27 10.0103 43.1682 9.92012 43.0915 9.81004L42.4824 8.81084L46.4527 8.81205ZM63.6594 8.81205C64.1409 8.81205 64.5273 8.57971 64.5273 8.1078V3.68725H66.6293V8.30282C66.6293 9.7017 65.7059 10.1712 64.4924 10.1712H60.9892C60.8549 10.1706 60.7227 10.1374 60.6041 10.0745C60.4854 10.0116 60.3838 9.92084 60.3078 9.81004L59.6987 8.81084L63.6594 8.81205ZM23.3881 12.3249H28.5791V13.9007H25.1866V15.4549H28.2541V16.9465H25.1866V18.8221H23.3881V12.3249ZM29.8022 12.3249H31.608V18.8137H29.8022V12.3249ZM33.167 12.3249H34.8451L37.5153 15.7547V12.3249H39.2946V18.8137H37.7139L34.9451 15.2551V18.8137H33.167V12.3249ZM40.3239 17.8542L41.3255 16.6588C41.9162 17.1532 42.6596 17.4283 43.4298 17.4377C43.9114 17.4377 44.1714 17.2703 44.1714 16.9922V16.9742C44.1714 16.7057 43.9583 16.5564 43.0783 16.353C41.6963 16.0376 40.6309 15.6487 40.6309 14.3137V14.2956C40.6309 13.0917 41.5855 12.219 43.1433 12.219C44.246 12.219 45.108 12.5151 45.8122 13.0809L44.913 14.351C44.3195 13.9332 43.6718 13.7105 43.0964 13.7105C42.6606 13.7105 42.4475 13.8959 42.4475 14.1283V14.1463C42.4475 14.4437 42.6702 14.5725 43.5695 14.7771C45.0622 15.101 45.988 15.5837 45.988 16.7984V16.8165C45.988 18.1407 44.9407 18.9292 43.366 18.9292C42.2151 18.9292 41.122 18.5681 40.3251 17.8542H40.3239ZM47.2244 12.3249H52.4431V13.855H49.0097V14.8373H52.124V16.2555H49.0097V17.286H52.4948V18.8257H47.2244V12.3249ZM53.783 12.3249H56.8552C57.8472 12.3249 58.5334 12.5849 58.9679 13.0291C59.3484 13.3999 59.5434 13.9007 59.5434 14.54V14.5592C59.5434 15.5512 59.0149 16.2085 58.2083 16.5516L59.7565 18.8137H57.6762L56.3736 16.8538H55.5863V18.8185H53.783V12.3249ZM56.7625 15.4405C57.3753 15.4405 57.7256 15.1431 57.7256 14.67V14.6519C57.7256 14.1415 57.3548 13.8827 56.7529 13.8827H55.5755V15.4405H56.7625ZM60.114 12.3249H62.1257L63.5968 16.436L65.0691 12.3249H67.0434L64.4106 18.8606H62.7468L60.114 12.3249ZM16.7946 13.4505C16.7946 15.7583 14.2159 15.9786 12.3921 15.9894H10.7476V13.9116H14.0101V12.3249H10.7476V10.1712H14.3592V8.49544H8.83832V15.993H6.72797V6.56927H12.3945C14.0799 6.56927 16.797 6.81004 16.797 9.03958C16.797 10.1423 15.852 10.9537 14.7504 11.2318C16.1156 11.6531 16.797 12.3297 16.797 13.4505H16.7946ZM11.5097 2.81445C9.83511 2.81445 8.19816 3.31102 6.80582 4.24135C5.41348 5.17168 4.32829 6.494 3.68746 8.04109C3.04664 9.58817 2.87897 11.2905 3.20566 12.9329C3.53235 14.5753 4.33872 16.0839 5.52281 17.268C6.7069 18.4521 8.21552 19.2585 9.8579 19.5852C11.5003 19.9119 13.2026 19.7442 14.7497 19.1034C16.2968 18.4625 17.6191 17.3773 18.5495 15.985C19.4798 14.5927 19.9764 12.9557 19.9764 11.2812C19.9764 9.03606 19.0847 6.88289 17.4974 5.29514C15.9101 3.7074 13.7572 2.81509 11.5121 2.81445H11.5097Z" fill="#FAFAFA"/>
</svg>
