<svg width="111" height="22" viewBox="0 0 111 22" fill="none" xmlns="http://www.w3.org/2000/svg">
<g clip-path="url(#clip0_8296_6562)">
<path d="M7.12861 5.94761L6.21484 9.03769L11.4451 5.93002L8.02439 17.656L11.4984 17.6587L16.5517 0.338867" fill="#FAFAFA"/>
<path d="M1.49937 12.7289L0.0605469 17.6585H7.18096L10.0946 7.63028L1.49937 12.7289ZM26.2331 8.38881C26.0591 8.98316 25.7237 9.41973 25.2236 9.69851C24.7247 9.97677 24.0244 10.1164 23.1205 10.1164H20.2487L21.257 6.66227H24.1289C25.0316 6.66227 25.6518 6.80086 25.9883 7.08338C26.3248 7.36589 26.406 7.79766 26.2331 8.39468M29.2065 8.32005C29.572 7.07272 29.4212 6.11323 28.7528 5.44159C28.0856 4.77527 26.9148 4.43945 25.2439 4.43945H18.8348L14.9767 17.6644H18.0905L19.6453 12.3339H21.6875C22.1458 12.3339 22.5067 12.4032 22.7701 12.5365C23.0341 12.6751 23.189 12.9149 23.2366 13.2614L23.7924 17.6644H27.1283L26.5876 13.5599C26.4774 12.6431 26.0208 12.1047 25.2184 11.9448C26.2412 11.6729 27.0982 11.2198 27.7886 10.5908C28.4741 9.96644 28.964 9.18386 29.2065 8.32538M36.7754 12.9309C36.5143 13.8264 36.114 14.5034 35.5727 14.9778C35.0308 15.4522 34.3833 15.6868 33.628 15.6868C32.8587 15.6868 32.3371 15.4576 32.0615 14.9938C31.7853 14.5301 31.7761 13.8584 32.0325 12.9789C32.2889 12.0994 32.6979 11.4117 33.2607 10.916C33.8235 10.4203 34.4814 10.1724 35.2368 10.1724C35.991 10.1724 36.5073 10.4123 36.7684 10.8883C37.0353 11.3664 37.0411 12.0503 36.78 12.9405L36.7754 12.9309ZM38.1399 8.25075L37.7501 9.58871C37.5818 9.10896 37.2552 8.72517 36.7725 8.43732C36.2886 8.1548 35.6899 8.01088 34.9757 8.01088C34.0996 8.01088 33.2584 8.21877 32.452 8.63455C31.6455 9.05033 30.9377 9.63668 30.3343 10.3936C29.731 11.1505 29.29 12.0087 29.0057 12.9736C28.7273 13.9437 28.6693 14.7913 28.8375 15.5269C29.0116 16.2678 29.3771 16.8328 29.9398 17.2273C30.5084 17.6271 31.2336 17.8243 32.1213 17.8243C32.8266 17.8276 33.524 17.6874 34.1634 17.4139C34.7957 17.1519 35.358 16.7662 35.8111 16.2838L35.405 17.6783H38.4161L41.1655 8.25555H38.1486L38.1399 8.25075ZM51.9857 8.25075H43.2292L42.6171 10.351H47.7121L40.9764 15.6974L40.4008 17.6697H49.4399L50.052 15.5695H44.5926L51.4316 10.1431M59.6932 12.9149C59.4223 13.8424 59.0202 14.5397 58.4893 14.9938C57.9585 15.4522 57.3157 15.6815 56.5609 15.6815C54.9828 15.6815 54.4641 14.7593 55.0025 12.9149C55.2694 11.9981 55.6732 11.3089 56.2128 10.8446C56.7523 10.3787 57.4062 10.1463 58.1749 10.1463C58.9291 10.1463 59.4385 10.3771 59.7007 10.8419C59.963 11.3057 59.9607 11.997 59.6932 12.9139M61.4557 8.60523C60.7624 8.20864 59.8777 8.01035 58.7986 8.01035C57.7061 8.01035 56.6949 8.20758 55.7643 8.60203C54.8376 8.99402 54.0231 9.57917 53.3856 10.311C52.73 11.0519 52.2583 11.9208 51.9688 12.9123C51.6846 13.9 51.6497 14.7673 51.8702 15.5098C52.0907 16.2508 52.5548 16.8211 53.251 17.2156C53.953 17.6132 54.8465 17.811 55.943 17.811C57.0221 17.811 58.0258 17.6116 58.9483 17.215C59.8707 16.8163 60.6598 16.2502 61.3153 15.504C61.9709 14.7609 62.4409 13.8941 62.731 12.9027C63.021 11.9112 63.0559 11.0455 62.8354 10.3014C62.6149 9.56046 62.1566 8.99009 61.4662 8.59297M72.2051 10.7678L72.9767 8.20385C72.7157 8.08124 72.3734 8.01728 71.944 8.01728C71.2536 8.01728 70.5922 8.17399 69.9541 8.49169C69.4052 8.76141 68.9388 9.14201 68.5443 9.61856L68.9446 8.23796L68.0703 8.24116H65.9236L63.1562 17.6601H66.2096L67.6456 12.7364C67.8544 12.0205 68.2304 11.457 68.7728 11.0573C69.3124 10.6559 69.9854 10.4549 70.7976 10.4549C71.2966 10.4549 71.7607 10.5599 72.2016 10.7694M80.7011 12.9602C80.44 13.8398 80.0455 14.5114 79.506 14.9752C78.9664 15.4411 78.3166 15.6735 77.5624 15.6735C76.8082 15.6735 76.2918 15.4389 76.0191 14.9698C75.7407 14.4981 75.7349 13.8185 75.9959 12.9251C76.257 12.0322 76.6573 11.3472 77.2085 10.8728C77.7597 10.3947 78.4094 10.1559 79.1637 10.1559C79.9063 10.1559 80.4052 10.4011 80.6721 10.8968C80.939 11.3925 80.9448 12.0802 80.6883 12.9597M82.8234 8.62069C82.2577 8.20491 81.5354 7.99702 80.6593 7.99702C79.8918 7.99702 79.1602 8.15694 78.4663 8.47996C77.773 8.80246 77.2102 9.24222 76.778 9.79873L76.7885 9.73476L77.3007 8.23689H74.3187L73.5586 10.8435L73.5354 10.9341L70.4025 21.6719H73.46L75.0381 16.2667C75.1947 16.7476 75.5138 17.125 76.0012 17.3979C76.4885 17.6697 77.0901 17.8046 77.8055 17.8046C78.6931 17.8046 79.5402 17.6074 80.3437 17.2129C81.1502 16.8174 81.8464 16.2481 82.4381 15.5125C83.0299 14.7769 83.4691 13.924 83.7493 12.9592C84.0336 11.9928 84.0916 11.1308 83.9292 10.3766C83.7638 9.62122 83.3977 9.03647 82.8326 8.62282M92.9653 12.9219C92.7042 13.8121 92.3039 14.4944 91.7643 14.9634C91.2248 15.4357 90.575 15.6708 89.8208 15.6708C89.0492 15.6708 88.527 15.4416 88.2543 14.9778C87.9758 14.5141 87.97 13.8424 88.2253 12.9629C88.4806 12.0834 88.8879 11.3957 89.4506 10.9C90.0134 10.4043 90.6719 10.1569 91.4273 10.1569C92.1815 10.1569 92.692 10.3968 92.9589 10.8712C93.2258 11.3472 93.2275 12.0311 92.9676 12.9235L92.9653 12.9219ZM94.3287 8.23903L93.9382 9.57698C93.77 9.09457 93.4451 8.71077 92.9636 8.42559C92.4762 8.14095 91.8786 7.99915 91.165 7.99915C90.289 7.99915 89.4431 8.20704 88.6355 8.62282C87.8291 9.0386 87.1213 9.62176 86.5179 10.3766C85.9145 11.1314 85.4736 11.9917 85.1893 12.9565C84.9079 13.9251 84.8528 14.7742 85.021 15.513C85.191 16.2486 85.5571 16.8169 86.1234 17.2134C86.6884 17.6079 87.4171 17.8073 88.3048 17.8073C89.0184 17.8073 89.7001 17.6708 90.347 17.3968C90.9777 17.1336 91.5386 16.7474 91.9906 16.2651L91.5845 17.6607H94.5956L97.3444 8.24169H94.3333L94.3287 8.23903ZM109.986 8.24222L109.987 8.23956H108.137C108.078 8.23956 108.025 8.24222 107.971 8.24329H107.011L106.518 8.87229L106.396 9.02154L106.344 9.09617L102.442 14.0898L101.636 8.24222H98.4404L100.059 17.1282L96.4852 21.6751H99.6703L100.535 20.5487C100.559 20.5157 100.581 20.488 100.61 20.4528L101.62 19.1361L101.649 19.0988L106.17 13.2086L109.982 8.25129L109.987 8.24809H109.986V8.24222Z" fill="#FAFAFA"/>
</g>
<defs>
<clipPath id="clip0_8296_6562">
<rect width="110" height="21.4286" fill="white" transform="translate(0.0136719 0.286133)"/>
</clipPath>
</defs>
</svg>
