<svg width="65" height="22" viewBox="0 0 65 22" fill="none" xmlns="http://www.w3.org/2000/svg">
<path d="M7.40461 3.1754H0.86278C0.492815 3.1754 0.192303 3.41374 0.190967 3.89185L0.130864 21.028C0.129529 21.4561 0.392644 21.6702 0.751924 21.6702C1.7336 21.6702 2.53497 21.6702 3.51664 21.6702C3.85722 21.6702 4.1377 21.4918 4.1377 21.135C4.1377 19.5494 4.1377 17.5913 4.1377 16.0057L6.97721 16.0186C8.84573 15.8873 10.0959 14.9596 10.6168 13.09C10.773 12.5291 10.8037 12.0439 10.8037 11.4673L10.9507 7.38272C10.8144 4.51124 9.41203 3.41945 7.40461 3.1754ZM6.80225 10.9607C6.80225 11.3802 6.48036 11.7242 6.08903 11.7242H4.1377V7.44267H6.08903C6.48036 7.44267 6.80225 7.78519 6.80225 8.20621V10.9607ZM18.7466 3.16113H14.1748C13.8276 3.16113 13.5297 3.27531 13.5297 3.66207C13.5297 4.66966 13.5297 5.7957 13.5297 6.80329C13.5671 7.22288 13.8383 7.44267 14.2242 7.44267H18.0374C18.8308 7.44267 18.748 8.82988 18.0374 8.86984H15.9445C13.6219 8.86984 12.1514 11.0991 12.1514 13.3469C12.1514 13.9463 12.158 15.3535 12.1514 16.0057C12.1407 16.9348 12.1327 17.8768 12.301 18.7159C12.6001 20.2002 13.8009 21.7144 15.62 21.7144H21.2669C21.9895 21.7144 22.8336 21.038 22.8336 20.1431V8.33465C22.871 5.22055 21.4232 3.32811 18.7466 3.16113ZM18.8294 16.7907C18.8294 17.1446 18.5596 17.4329 18.2311 17.4329H16.7552C16.4267 17.4329 16.1582 17.1446 16.1582 16.7907V13.7922C16.1582 13.4397 16.4267 13.1514 16.7552 13.1514H18.2311C18.5596 13.1514 18.8294 13.4397 18.8294 13.7922V16.7907ZM24.1719 4.00888V12.0125C24.3375 14.296 26.3195 16.0057 28.4071 16.0057H30.2957C31.093 16.0057 31.0449 17.3887 30.2957 17.3887H26.1619C25.7092 17.3887 25.5449 17.6413 25.5449 18.068V21.1393C25.5449 21.4618 25.7893 21.7045 26.1085 21.7045H30.0606C33.2874 21.7045 34.8581 20.0504 34.8568 16.3425V3.72629C34.8568 3.33239 34.623 3.17969 34.4 3.17969H31.3254C31.0262 3.17969 30.8513 3.52649 30.8513 3.78195V11.229C30.8513 11.513 30.703 11.68 30.4639 11.68H28.7263C28.3737 11.68 28.18 11.4759 28.18 11.1148V3.89613C28.1787 3.47226 28.0184 3.16113 27.5804 3.16113C26.5413 3.16113 25.6544 3.16113 24.6153 3.16113C24.2614 3.16113 24.1719 3.53648 24.1719 4.00888Z" fill="#FAFAFA"/>
<path d="M36.2422 6.82755V3.77624C36.2422 3.438 36.5013 3.16113 36.8165 3.16113H37.527C39.3542 2.75438 39.9993 2.27628 41.1172 0.988965C41.8037 0.194027 42.4074 -0.0157695 42.8508 0.827692L42.8695 3.16113H44.9651C45.2829 3.16113 45.5407 3.438 45.5407 3.77624V6.82755C45.5407 7.16436 45.2816 7.44266 44.9651 7.44266H42.8695V21.0993C42.8695 21.439 42.6104 21.7144 42.2952 21.7144H39.437C39.1204 21.7144 38.8627 21.439 38.8627 21.0993V7.44266H36.8178C36.504 7.44266 36.2422 7.16579 36.2422 6.82755ZM57.5492 20.9509C57.5492 21.3705 57.2233 21.7144 56.8293 21.7144H54.2783C53.8816 21.7144 53.5571 21.3705 53.5571 20.9509V11.4987V8.82845C53.5571 6.99595 50.8832 6.99595 50.8832 8.82845V20.9509C50.8832 21.3705 50.5599 21.7144 50.1633 21.7144H47.5976C47.2009 21.7144 46.8763 21.3705 46.8763 20.9509V3.92752C46.8763 3.50508 47.2009 3.16113 47.5976 3.16113H50.2367C50.6334 3.16113 50.9566 3.50508 50.9566 3.92752V4.34426C52.7196 2.53745 55.3668 2.95561 56.8547 4.66965C59.6555 1.23729 64.4543 4.29573 64.2313 8.0592C64.2313 12.2208 64.1965 16.755 64.1965 20.9509C64.1965 21.3705 63.8707 21.7144 63.478 21.7144H60.9523C60.5557 21.7144 60.2325 21.3705 60.2325 20.9509C60.2325 16.9748 60.2325 12.8146 60.2325 8.90552C60.2325 7.04019 57.5612 6.95028 57.5612 8.90552V20.9509H57.5492Z" fill="#FAFAFA"/>
</svg>
