<svg width="105" height="22" viewBox="0 0 105 22" fill="none" xmlns="http://www.w3.org/2000/svg">
<path d="M41.3696 17.0474C37.5421 20.0943 31.993 21.7139 27.2149 21.7139C20.5184 21.7139 14.4871 19.0443 9.92417 14.6C9.56628 14.2512 9.88505 13.7746 10.3166 14.044C15.2397 17.1343 21.3297 18.9947 27.6176 18.9947C31.8595 18.9947 36.5236 18.0452 40.8149 16.0818C41.4605 15.7864 42.0026 16.5423 41.3696 17.0474Z" fill="#FAFAFA"/>
<path d="M42.9626 15.0853C42.4723 14.4089 39.7265 14.7651 38.4929 14.924C38.1189 14.9724 38.0613 14.6199 38.3974 14.3655C40.5885 12.7061 44.179 13.1852 44.5955 13.7412C45.0156 14.3009 44.4851 18.183 42.4321 20.036C42.1156 20.3202 41.8152 20.1688 41.9556 19.7927C42.4182 18.5492 43.4528 15.7629 42.9626 15.0853Z" fill="#FAFAFA"/>
<path d="M38.5782 2.64184V1.02967C38.5793 0.783938 38.7508 0.621358 38.9568 0.621358L45.659 0.620117C45.8731 0.620117 46.0457 0.787663 46.0457 1.02719V2.40976C46.0434 2.64184 45.8616 2.94467 45.5416 3.42497L42.0697 8.77032C43.3586 8.73805 44.7211 8.94655 45.8926 9.65521C46.1562 9.81531 46.2275 10.0524 46.2482 10.2844V12.0046C46.2482 12.2416 46.0077 12.5159 45.7545 12.3732C43.6923 11.2078 40.9546 11.08 38.6737 12.3868C38.4412 12.5209 38.1973 12.2503 38.1973 12.0133V10.3775C38.1973 10.1157 38.2019 9.66762 38.447 9.26923L42.469 3.04644L38.9671 3.04519C38.7519 3.04768 38.5793 2.88385 38.5782 2.64184Z" fill="#FAFAFA"/>
<path d="M14.1325 12.715H12.0933C11.8988 12.7013 11.7446 12.545 11.7285 12.3439L11.7308 1.05747C11.7308 0.831592 11.9069 0.651635 12.1244 0.651635L14.0232 0.650395C14.2211 0.661564 14.3811 0.822906 14.3938 1.02893V2.50209H14.4329C14.9277 1.07733 15.8599 0.412109 17.1165 0.412109C18.3916 0.412109 19.1914 1.07733 19.7622 2.50209C20.2571 1.07733 21.3802 0.412109 22.5782 0.412109C23.4344 0.412109 24.3677 0.79188 24.9385 1.64699C25.5852 2.59766 25.4529 3.97402 25.4529 5.18532L25.4506 12.3079C25.4506 12.5325 25.2757 12.7137 25.057 12.7137H23.0213C22.8164 12.7001 22.6553 12.5251 22.6553 12.3091L22.6542 6.32588C22.6542 5.85178 22.6921 4.66406 22.5966 4.21355C22.4447 3.45277 21.9878 3.2393 21.3986 3.2393C20.9038 3.2393 20.3894 3.59549 20.1799 4.16515C19.9705 4.73605 19.9901 5.68548 19.9901 6.32712V12.3091C19.9901 12.5338 19.814 12.715 19.5965 12.715H17.5596C17.3547 12.7013 17.1936 12.5263 17.1936 12.3104L17.1913 6.32712C17.1913 5.06866 17.3824 3.21696 15.9358 3.21696C14.4697 3.21696 14.5272 5.0215 14.5272 6.32712L14.5261 12.3091C14.5249 12.5338 14.35 12.715 14.1325 12.715Z" fill="#FAFAFA"/>
<path d="M51.834 2.71654C50.3311 2.71654 50.2355 4.92443 50.2355 6.30203C50.2355 7.67964 50.2171 10.6247 51.8156 10.6247C53.3956 10.6247 53.4716 8.24929 53.4716 6.80095C53.4716 5.85152 53.4324 4.71096 53.1666 3.80869C52.9376 3.02433 52.4807 2.71654 51.834 2.71654ZM51.8156 0.413086C54.841 0.413086 56.4775 3.21669 56.4775 6.77861C56.4775 10.2214 54.6696 12.953 51.8156 12.953C48.8465 12.953 47.2285 10.1506 47.2285 6.65946C47.2285 3.14347 48.8649 0.413086 51.8156 0.413086Z" fill="#FAFAFA"/>
<path d="M60.4037 12.715H58.3714C58.1677 12.7013 58.0054 12.5263 58.0054 12.3104L58.002 1.02024C58.0192 0.812977 58.1884 0.651635 58.3944 0.651635L60.2851 0.650395C60.4635 0.660323 60.6097 0.790639 60.6476 0.965632V2.69198H60.6868C61.2587 1.14807 62.0574 0.412109 63.4648 0.412109C64.3785 0.412109 65.2727 0.768299 65.8446 1.74255C66.3774 2.64482 66.3774 4.16391 66.3774 5.2573V12.3588C66.3556 12.5586 66.1887 12.7137 65.9862 12.7137H63.9424C63.7536 12.7013 63.6017 12.5512 63.5787 12.3588V6.23155C63.5787 4.99667 63.7122 3.1909 62.3036 3.1909C61.8088 3.1909 61.3519 3.54709 61.1241 4.09317C60.8387 4.78197 60.8007 5.47077 60.8007 6.23155V12.3079C60.7961 12.5338 60.62 12.715 60.4037 12.715Z" fill="#FAFAFA"/>
<path d="M94.2473 16.7633C94.2473 16.4778 94.2473 16.2209 94.2473 15.9342C94.2473 15.6984 94.3543 15.5359 94.5833 15.5508C95.0091 15.6165 95.6121 15.6811 96.0391 15.5867C96.5972 15.4614 96.9988 15.0345 97.2359 14.4487C97.5696 13.6246 97.7906 12.9606 97.931 12.5237L93.6892 1.1914C93.6178 0.999035 93.596 0.641602 93.9527 0.641602H95.4349C95.718 0.641602 95.8331 0.835213 95.8964 1.0251L98.9713 10.2302L101.907 1.0251C101.967 0.836454 102.088 0.641602 102.367 0.641602H103.766C104.119 0.641602 104.099 0.997794 104.029 1.1914L99.8217 12.8775C99.2774 14.4325 98.5524 16.9097 96.9183 17.3404C96.0989 17.5712 95.0655 17.4881 94.4591 17.2138C94.306 17.1307 94.2473 16.9085 94.2473 16.7633Z" fill="#FAFAFA"/>
<path d="M92.2707 12.0233C92.2707 12.2343 92.1108 12.4068 91.914 12.4068H90.8679C90.6423 12.4068 90.4881 12.2306 90.4594 12.0233L90.3546 11.2563C89.8736 11.6944 89.2844 12.0804 88.6446 12.3485C87.4144 12.8636 85.9966 12.9492 84.7952 12.1524C83.9263 11.5778 83.4648 10.4521 83.4648 9.29295C83.4648 8.39565 83.7215 7.50579 84.29 6.86042C85.0483 5.97801 86.1485 5.54363 87.4765 5.54363C88.2786 5.54363 89.426 5.6454 90.2614 5.93954V4.39439C90.2614 2.82318 89.6481 2.1443 88.0312 2.1443C86.7952 2.1443 85.8504 2.34536 84.5351 2.78718C84.3245 2.79463 84.2014 2.62212 84.2014 2.41114V1.52996C84.2014 1.31898 84.3682 1.1142 84.55 1.05215C85.4891 0.610321 86.8206 0.3348 88.2349 0.285156C90.0796 0.285156 92.2707 0.733188 92.2707 3.79246V12.0233ZM90.2614 9.76828V7.43753C89.5594 7.23027 88.3983 7.14463 87.9495 7.14463C87.2394 7.14463 86.4615 7.32583 86.0564 7.79744C85.7526 8.14246 85.6157 8.6389 85.6157 9.1192C85.6157 9.73974 85.8148 10.3615 86.2797 10.6693C86.8194 11.0652 87.6572 11.0168 88.4432 10.776C89.1981 10.5427 89.9081 10.1332 90.2614 9.76828Z" fill="#FAFAFA"/>
<path d="M10.1391 10.6459C9.7662 10.0912 9.36917 9.63942 9.36917 8.60807V5.18268C9.36917 3.73061 9.46469 2.39769 8.4727 1.39737C7.70857 0.6068 6.45421 0.316386 5.47258 0.302734H5.32068C3.40115 0.326315 1.28944 1.12061 0.841786 3.6698C0.793453 3.94408 0.97873 4.08928 1.14675 4.13024L3.12266 4.36108C3.30794 4.35115 3.44143 4.15382 3.4771 3.95649C3.64627 3.06663 4.3379 2.63597 5.11584 2.63597C5.53472 2.63597 6.0123 2.80228 6.25972 3.20687C6.54627 3.65987 6.50715 4.27669 6.50715 4.80167V5.08711C5.32528 5.22984 3.77976 5.3254 2.67385 5.84914C1.39647 6.44486 0.5 7.65864 0.5 9.44332C0.5 11.7282 1.83492 12.87 3.55191 12.87C5.00191 12.87 5.79365 12.5014 6.91338 11.2714C7.28278 11.851 7.40477 12.1303 8.08258 12.7372C8.23449 12.8253 8.42897 12.8166 8.56476 12.6863L8.56937 12.6912C8.9756 12.3003 9.71671 11.6078 10.1333 11.2305C10.2979 11.084 10.2679 10.847 10.1391 10.6459ZM6.12623 9.65803C5.80286 10.2761 5.2873 10.6571 4.71421 10.6571C3.93282 10.6571 3.4748 10.0155 3.4748 9.06231C3.4748 7.18951 5.03298 6.84821 6.50715 6.84821V7.32479C6.5083 8.18238 6.52671 8.896 6.12623 9.65803Z" fill="#FAFAFA"/>
<path d="M36.8668 10.645C36.4939 10.0902 36.0969 9.63844 36.0969 8.6071V5.1817C36.0969 3.72963 36.1936 2.39671 35.2004 1.39639C34.4363 0.605823 33.1819 0.31541 32.2003 0.301758H32.0484C30.13 0.322856 28.0183 1.11839 27.5695 3.66758C27.5223 3.94186 27.7076 4.08707 27.8745 4.12802L29.8515 4.35886C30.0356 4.34894 30.1691 4.1516 30.2048 3.95427C30.3751 3.06441 31.0656 2.63375 31.8435 2.63375C32.2636 2.63375 32.74 2.80006 32.9874 3.20466C33.274 3.65765 33.236 4.27447 33.236 4.79945V5.0849C32.053 5.22762 30.5086 5.32318 29.4016 5.84692C28.1242 6.4414 27.2266 7.65518 27.2266 9.4411C27.2266 11.7259 28.5615 12.8677 30.2785 12.8677C31.7285 12.8677 32.5214 12.4991 33.6399 11.2692C34.0105 11.8476 34.1313 12.128 34.8091 12.7349C34.9622 12.8231 35.1555 12.8144 35.2902 12.6841L35.2959 12.689C35.7022 12.2981 36.4421 11.6056 36.8587 11.2283C37.0267 11.0831 36.998 10.846 36.8668 10.645ZM32.8551 9.65705C32.5306 10.2751 32.015 10.6561 31.4431 10.6561C30.6617 10.6561 30.2037 10.0145 30.2037 9.06133C30.2037 7.18853 31.7607 6.84724 33.236 6.84724V7.32382C33.2372 8.18141 33.2556 8.89503 32.8551 9.65705Z" fill="#FAFAFA"/>
<path d="M77.429 0.291992C76.1976 0.291992 74.9053 0.908811 73.9006 1.86941L73.7878 1.04533C73.7591 0.838067 73.6049 0.661836 73.3793 0.661836H72.3068C72.1111 0.661836 71.9512 0.834344 71.9512 1.04533C71.9512 6.29139 71.9512 11.5375 71.9512 16.7835C71.9512 16.9945 72.1111 17.167 72.3068 17.167H73.7073C73.9029 17.167 74.0629 16.9945 74.0629 16.7835V11.3488C74.9513 12.2027 76.1067 12.6954 77.3426 12.6954C80.2772 12.6954 82.0126 9.95507 82.0126 6.54581C82.0126 3.35747 80.8779 0.291992 77.429 0.291992ZM78.8306 10.0469C78.2851 10.6277 77.6752 10.7854 76.758 10.7854C75.941 10.7854 74.8673 10.3262 74.064 9.68576V3.24453C74.8995 2.552 75.9663 2.17844 76.8536 2.17844C79.1736 2.17844 79.8053 4.14556 79.8053 6.39813C79.818 7.91845 79.5602 9.27248 78.8306 10.0469Z" fill="#FAFAFA"/>
</svg>
