<svg width="58" height="22" viewBox="0 0 58 22" fill="none" xmlns="http://www.w3.org/2000/svg">
<path fill-rule="evenodd" clip-rule="evenodd" d="M46.1738 15.6075L52.9938 10.9414L49.7634 6.11426L46.1738 15.6075Z" fill="#FAFAFA"/>
<path fill-rule="evenodd" clip-rule="evenodd" d="M43.877 15.6075L50.697 10.9414L47.4665 6.11426L43.877 15.6075Z" fill="#FAFAFA"/>
<path fill-rule="evenodd" clip-rule="evenodd" d="M11.284 6.16813L8.41256 13.8378L18.6064 13.8913L21.4064 6.16813H23.9907L20.6335 15.1467C20.5049 15.4896 20.0154 15.7681 19.5407 15.7681H6.47446C5.68208 15.7681 5.21256 15.3038 5.42685 14.7324L8.62875 6.16813H11.284ZM42.7992 6.11456H45.3835L41.794 15.7681H39.1368L42.7992 6.11456ZM24.2783 10.1367L37.2002 10.0831L38.0621 8.04491H24.924L25.7135 6.16777L39.7135 6.07134C40.5849 6.06527 41.104 6.57134 40.8745 7.20241L39.5554 10.8181C39.3254 11.4488 38.4316 11.9599 37.5602 11.9599H26.0011L24.6383 15.9288H22.124L24.2783 10.1367Z" fill="#FAFAFA"/>
</svg>
