<svg width="150" height="150" viewBox="0 0 150 150" fill="none" xmlns="http://www.w3.org/2000/svg">
<rect width="150" height="150" rx="75" fill="white"/>
<path d="M27.5625 109.5V92.25C27.5625 89.8063 28.407 87.7578 30.0961 86.1047C31.7852 84.4516 33.8156 83.625 36.1875 83.625H50.3109C51.7484 83.625 53.1141 83.9844 54.4078 84.7031C55.7016 85.4219 56.7437 86.3922 57.5344 87.6141C59.6188 90.4172 62.1883 92.6094 65.243 94.1906C68.2977 95.7719 71.55 96.5625 75 96.5625C78.5219 96.5625 81.8102 95.7719 84.8648 94.1906C87.9195 92.6094 90.4531 90.4172 92.4656 87.6141C93.4 86.3922 94.4961 85.4219 95.7539 84.7031C97.0117 83.9844 98.3234 83.625 99.6891 83.625H113.812C116.256 83.625 118.305 84.4516 119.958 86.1047C121.611 87.7578 122.438 89.8063 122.438 92.25V109.5H92.25V99.6891C89.7344 101.486 87.0211 102.852 84.1102 103.786C81.1992 104.72 78.1625 105.188 75 105.188C71.9094 105.188 68.8906 104.702 65.9438 103.732C62.9969 102.762 60.2656 101.378 57.75 99.5812V109.5H27.5625ZM75 92.25C72.2687 92.25 69.6813 91.6211 67.2375 90.3633C64.7938 89.1055 62.7453 87.3625 61.0922 85.1344C59.8703 83.3375 58.343 81.918 56.5102 80.8758C54.6773 79.8336 52.6828 79.3125 50.5266 79.3125C52.1078 76.6531 55.45 74.5508 60.5531 73.0055C65.6562 71.4602 70.4719 70.6875 75 70.6875C79.5281 70.6875 84.3438 71.4602 89.4469 73.0055C94.55 74.5508 97.8922 76.6531 99.4734 79.3125C97.3891 79.3125 95.4125 79.8336 93.5438 80.8758C91.675 81.918 90.1297 83.3375 88.9078 85.1344C87.3266 87.4344 85.3141 89.1953 82.8703 90.4172C80.4266 91.6391 77.8031 92.25 75 92.25ZM40.5 79.3125C36.9062 79.3125 33.8516 78.0547 31.3359 75.5391C28.8203 73.0234 27.5625 69.9688 27.5625 66.375C27.5625 62.7094 28.8203 59.6367 31.3359 57.157C33.8516 54.6773 36.9062 53.4375 40.5 53.4375C44.1656 53.4375 47.2383 54.6773 49.718 57.157C52.1977 59.6367 53.4375 62.7094 53.4375 66.375C53.4375 69.9688 52.1977 73.0234 49.718 75.5391C47.2383 78.0547 44.1656 79.3125 40.5 79.3125ZM109.5 79.3125C105.906 79.3125 102.852 78.0547 100.336 75.5391C97.8203 73.0234 96.5625 69.9688 96.5625 66.375C96.5625 62.7094 97.8203 59.6367 100.336 57.157C102.852 54.6773 105.906 53.4375 109.5 53.4375C113.166 53.4375 116.238 54.6773 118.718 57.157C121.198 59.6367 122.438 62.7094 122.438 66.375C122.438 69.9688 121.198 73.0234 118.718 75.5391C116.238 78.0547 113.166 79.3125 109.5 79.3125ZM75 66.375C71.4062 66.375 68.3516 65.1172 65.8359 62.6016C63.3203 60.0859 62.0625 57.0312 62.0625 53.4375C62.0625 49.7719 63.3203 46.6992 65.8359 44.2195C68.3516 41.7398 71.4062 40.5 75 40.5C78.6656 40.5 81.7383 41.7398 84.218 44.2195C86.6977 46.6992 87.9375 49.7719 87.9375 53.4375C87.9375 57.0312 86.6977 60.0859 84.218 62.6016C81.7383 65.1172 78.6656 66.375 75 66.375Z" fill="url(#paint0_linear_8272_4013)"/>
<defs>
<linearGradient id="paint0_linear_8272_4013" x1="75" y1="40.5" x2="75" y2="109.5" gradientUnits="userSpaceOnUse">
<stop stop-color="#01BC96"/>
<stop offset="1" stop-color="#0191D3"/>
</linearGradient>
</defs>
</svg>
