<svg width="206" height="156" viewBox="0 0 206 156" fill="none" xmlns="http://www.w3.org/2000/svg">
<g clip-path="url(#clip0_1624_593)">
<path d="M96.5295 34.216C96.8429 34.216 97.1171 34.099 97.3521 33.865C97.5872 33.631 97.7047 33.358 97.7047 33.046V31.798C97.7047 31.486 97.5872 31.213 97.3521 30.979C97.1171 30.745 96.8429 30.628 96.5295 30.628C96.2161 30.628 95.955 30.745 95.7461 30.979C95.5372 31.213 95.4327 31.486 95.4327 31.798V33.046C95.4327 33.358 95.5372 33.631 95.7461 33.865C95.955 34.099 96.2161 34.216 96.5295 34.216ZM106.714 34.216C107.028 34.216 107.289 34.099 107.498 33.865C107.707 33.631 107.811 33.358 107.811 33.046V31.798C107.811 31.486 107.707 31.213 107.498 30.979C107.289 30.745 107.028 30.628 106.714 30.628C106.401 30.628 106.127 30.745 105.892 30.979C105.657 31.213 105.539 31.486 105.539 31.798V33.046C105.539 33.358 105.657 33.631 105.892 33.865C106.127 34.099 106.401 34.216 106.714 34.216ZM99.1149 42.874H104.129C104.495 42.874 104.782 42.77 104.991 42.562C105.2 42.354 105.304 42.094 105.304 41.782C105.304 41.47 105.2 41.197 104.991 40.963C104.782 40.729 104.495 40.612 104.129 40.612H99.1149C98.8015 40.612 98.5273 40.716 98.2923 40.924C98.0573 41.132 97.9397 41.405 97.9397 41.743C97.9397 42.081 98.0573 42.354 98.2923 42.562C98.5273 42.77 98.8015 42.874 99.1149 42.874ZM137.817 82.81L135.31 76.804L130.218 64.558C129.643 63.102 128.847 61.841 127.828 60.775C126.81 59.709 125.648 58.916 124.342 58.396C123.767 57.616 123.049 57.005 122.188 56.563C121.326 56.121 120.399 55.9 119.406 55.9H116.664C116.351 55.9 116.09 56.017 115.881 56.251C115.672 56.485 115.567 56.758 115.567 57.07C115.567 57.382 115.672 57.642 115.881 57.85C116.09 58.058 116.351 58.162 116.664 58.162H119.406C120.451 58.162 121.365 58.552 122.148 59.332C122.932 60.112 123.324 61.022 123.324 62.062V83.668H79.9204V62.062C79.9204 61.022 80.3121 60.112 81.0956 59.332C81.879 58.552 82.8191 58.162 83.916 58.162H112.12C112.434 58.162 112.695 58.058 112.904 57.85C113.113 57.642 113.217 57.382 113.217 57.07C113.217 56.758 113.113 56.485 112.904 56.251C112.695 56.017 112.434 55.9 112.12 55.9H110.397V50.05C111.807 48.854 112.956 47.437 113.844 45.799C114.732 44.161 115.254 42.406 115.411 40.534H116.821C117.865 40.534 118.74 40.17 119.445 39.442C120.151 38.714 120.503 37.856 120.503 36.868V31.798C120.503 30.758 120.151 29.887 119.445 29.185C118.74 28.483 117.865 28.132 116.821 28.132H115.489V26.728V20.41C115.489 19.058 115.15 17.823 114.471 16.705C113.792 15.587 112.878 14.69 111.728 14.014C110.579 13.338 109.326 13 107.968 13H95.276C93.918 13 92.6776 13.338 91.5546 14.014C90.4317 14.69 89.5307 15.587 88.8517 16.705C88.1727 17.823 87.8332 19.058 87.8332 20.41V26.728V28.132H86.423C85.4306 28.132 84.5688 28.483 83.8376 29.185C83.1064 29.887 82.7408 30.758 82.7408 31.798V36.868C82.7408 37.856 83.1064 38.714 83.8376 39.442C84.5688 40.17 85.4306 40.534 86.423 40.534H87.8332C87.9899 42.406 88.5122 44.161 89.4001 45.799C90.288 47.437 91.4371 48.854 92.8473 50.05V55.9H83.916C82.9236 55.9 81.9835 56.121 81.0956 56.563C80.2076 57.005 79.4764 57.616 78.9019 58.396C77.5961 58.916 76.434 59.709 75.4155 60.775C74.3971 61.841 73.6005 63.102 73.026 64.558L67.9336 76.804L65.4265 82.81C65.0609 83.694 64.9304 84.617 65.0348 85.579C65.1393 86.541 65.4527 87.438 65.975 88.27C66.4973 89.102 67.1632 89.752 67.9728 90.22C68.7823 90.688 69.6572 90.948 70.5973 91H82.8191C83.1848 91 83.472 90.883 83.6809 90.649C83.8899 90.415 83.9943 90.142 83.9943 89.83C83.9943 89.518 83.8899 89.258 83.6809 89.05C83.472 88.842 83.1848 88.738 82.8191 88.738H77.57C77.2044 88.738 76.878 88.595 76.5907 88.309C76.3034 88.023 76.1598 87.698 76.1598 87.334V86.086L76.2382 85.93H127.006L127.084 86.086V87.334C127.084 87.698 126.954 88.023 126.692 88.309C126.431 88.595 126.118 88.738 125.752 88.738H87.4415C87.1281 88.738 86.8539 88.842 86.6189 89.05C86.3838 89.258 86.2663 89.518 86.2663 89.83C86.2663 90.142 86.3838 90.415 86.6189 90.649C86.8539 90.883 87.1281 91 87.4415 91H132.647C133.587 90.948 134.462 90.688 135.271 90.22C136.081 89.752 136.747 89.102 137.269 88.27C137.791 87.438 138.105 86.541 138.209 85.579C138.314 84.617 138.183 83.694 137.817 82.81ZM116.821 30.394C117.239 30.394 117.578 30.524 117.839 30.784C118.101 31.044 118.231 31.382 118.231 31.798V36.868C118.231 37.232 118.101 37.557 117.839 37.843C117.578 38.129 117.239 38.272 116.821 38.272H115.489V30.394H116.821ZM95.276 15.262H107.968C109.43 15.262 110.658 15.769 111.65 16.783C112.642 17.797 113.139 19.006 113.139 20.41V25.636H111.728C111.363 25.636 111.049 25.493 110.788 25.207C110.527 24.921 110.397 24.596 110.397 24.232V22.828H110.475C110.788 22.828 111.063 22.724 111.298 22.516C111.533 22.308 111.65 22.048 111.65 21.736C111.65 21.424 111.533 21.151 111.298 20.917C111.063 20.683 110.788 20.566 110.475 20.566H92.769C92.4556 20.566 92.1814 20.683 91.9463 20.917C91.7113 21.151 91.5938 21.424 91.5938 21.736C91.5938 22.048 91.7113 22.308 91.9463 22.516C92.1814 22.724 92.4556 22.828 92.769 22.828H92.8473V24.232C92.8473 24.596 92.7167 24.921 92.4556 25.207C92.1944 25.493 91.8811 25.636 91.5154 25.636H90.1052V20.41C90.1052 19.006 90.6145 17.797 91.633 16.783C92.6514 15.769 93.8658 15.262 95.276 15.262ZM85.0128 36.868V31.798C85.0128 31.382 85.1564 31.044 85.4437 30.784C85.731 30.524 86.0574 30.394 86.423 30.394H87.8332V38.272H86.423C86.0574 38.272 85.731 38.129 85.4437 37.843C85.1564 37.557 85.0128 37.232 85.0128 36.868ZM90.1052 39.364V27.898H91.5154C92.56 27.898 93.4349 27.534 94.14 26.806C94.8451 26.078 95.1977 25.22 95.1977 24.232V22.828H108.046V24.232C108.046 25.22 108.412 26.078 109.143 26.806C109.874 27.534 110.736 27.898 111.728 27.898H113.139V39.364C113.139 41.444 112.616 43.355 111.572 45.097C110.527 46.839 109.13 48.23 107.38 49.27C105.631 50.31 103.711 50.83 101.622 50.83C99.5327 50.83 97.6133 50.31 95.8636 49.27C94.1139 48.23 92.7167 46.839 91.6721 45.097C90.6275 43.355 90.1052 41.444 90.1052 39.364ZM95.1977 51.532C97.2346 52.624 99.3761 53.17 101.622 53.17C103.868 53.17 106.009 52.624 108.046 51.532V55.9H95.1977V51.532ZM75.1413 65.416C75.7681 63.96 76.6038 62.764 77.6484 61.828V76.102H70.6757L75.1413 65.416ZM73.8878 86.086V87.334C73.8878 87.802 73.9662 88.27 74.1228 88.738H70.754C69.6049 88.686 68.6387 88.14 67.8552 87.1C67.5419 86.58 67.3591 86.008 67.3068 85.384C67.2546 84.76 67.3329 84.188 67.5419 83.668L69.7355 78.364H77.6484V83.668H76.2382C75.5592 83.668 74.9977 83.902 74.5537 84.37C74.1098 84.838 73.8878 85.41 73.8878 86.086ZM128.103 65.416L132.568 76.102H125.596V61.828C126.692 62.816 127.528 64.012 128.103 65.416ZM135.389 87.1C134.605 88.088 133.665 88.634 132.568 88.738H129.121C129.278 88.27 129.356 87.802 129.356 87.334V86.086C129.356 85.41 129.134 84.838 128.69 84.37C128.246 83.902 127.685 83.668 127.006 83.668H125.596V78.364H133.508L135.702 83.668C135.911 84.188 135.989 84.76 135.937 85.384C135.885 86.008 135.702 86.58 135.389 87.1ZM97.9397 72.202C97.9397 73.19 98.3053 74.048 99.0366 74.776C99.7678 75.504 100.643 75.868 101.661 75.868C102.68 75.868 103.541 75.504 104.247 74.776C104.952 74.048 105.304 73.177 105.304 72.163C105.304 71.149 104.952 70.291 104.247 69.589C103.541 68.887 102.68 68.536 101.661 68.536C100.643 68.536 99.7678 68.887 99.0366 69.589C98.3053 70.291 97.9397 71.162 97.9397 72.202ZM103.032 72.202C103.032 72.566 102.902 72.891 102.64 73.177C102.379 73.463 102.053 73.606 101.661 73.606C101.269 73.606 100.93 73.463 100.643 73.177C100.355 72.891 100.212 72.553 100.212 72.163C100.212 71.773 100.355 71.448 100.643 71.188C100.93 70.928 101.269 70.798 101.661 70.798C102.053 70.798 102.379 70.928 102.64 71.188C102.902 71.448 103.032 71.786 103.032 72.202Z" fill="#004D37"/>
<path d="M40.6412 127V112.455H46.3798C47.483 112.455 48.4229 112.665 49.1994 113.087C49.9759 113.503 50.5678 114.083 50.975 114.827C51.3869 115.565 51.5929 116.418 51.5929 117.384C51.5929 118.349 51.3845 119.202 50.9679 119.94C50.5512 120.679 49.9475 121.254 49.1568 121.666C48.3708 122.078 47.4191 122.284 46.3017 122.284H42.644V119.82H45.8045C46.3964 119.82 46.8841 119.718 47.2676 119.514C47.6558 119.306 47.9447 119.019 48.1341 118.655C48.3282 118.286 48.4252 117.862 48.4252 117.384C48.4252 116.901 48.3282 116.479 48.1341 116.119C47.9447 115.755 47.6558 115.473 47.2676 115.274C46.8793 115.071 46.3869 114.969 45.7903 114.969H43.7164V127H40.6412ZM58.3294 127.213C57.2072 127.213 56.2413 126.986 55.4316 126.531C54.6267 126.072 54.0065 125.423 53.5708 124.585C53.1352 123.742 52.9174 122.746 52.9174 121.595C52.9174 120.473 53.1352 119.488 53.5708 118.641C54.0065 117.793 54.6196 117.133 55.4103 116.659C56.2058 116.186 57.1386 115.949 58.2086 115.949C58.9283 115.949 59.5983 116.065 60.2186 116.297C60.8436 116.524 61.3881 116.867 61.8521 117.327C62.3208 117.786 62.6854 118.364 62.9458 119.06C63.2063 119.751 63.3365 120.561 63.3365 121.489V122.32H54.1248V120.445H60.4885C60.4885 120.009 60.3938 119.623 60.2044 119.287C60.015 118.951 59.7522 118.688 59.416 118.499C59.0846 118.304 58.6987 118.207 58.2583 118.207C57.7991 118.207 57.3919 118.314 57.0368 118.527C56.6864 118.735 56.4118 119.017 56.2129 119.372C56.014 119.723 55.9122 120.113 55.9075 120.544V122.327C55.9075 122.866 56.0069 123.333 56.2058 123.726C56.4094 124.119 56.6958 124.422 57.0652 124.635C57.4345 124.848 57.8725 124.955 58.3791 124.955C58.7153 124.955 59.023 124.907 59.3024 124.812C59.5817 124.718 59.8208 124.576 60.0197 124.386C60.2186 124.197 60.3701 123.965 60.4743 123.69L63.2726 123.875C63.1305 124.547 62.8393 125.134 62.399 125.636C61.9634 126.134 61.3999 126.522 60.7086 126.801C60.0221 127.076 59.229 127.213 58.3294 127.213ZM65.3109 127V116.091H68.2441V117.994H68.3578C68.5566 117.317 68.8904 116.806 69.3592 116.46C69.8279 116.11 70.3677 115.935 70.9785 115.935C71.13 115.935 71.2934 115.944 71.4686 115.963C71.6438 115.982 71.7976 116.008 71.9302 116.041V118.726C71.7882 118.683 71.5917 118.645 71.3407 118.612C71.0898 118.579 70.8601 118.562 70.6518 118.562C70.2067 118.562 69.809 118.66 69.4586 118.854C69.113 119.043 68.8384 119.308 68.6348 119.649C68.4359 119.99 68.3365 120.383 68.3365 120.828V127H65.3109ZM82.5712 119.202L79.8013 119.372C79.754 119.135 79.6522 118.922 79.4959 118.733C79.3397 118.539 79.1337 118.385 78.878 118.271C78.6271 118.153 78.3264 118.094 77.976 118.094C77.5073 118.094 77.1119 118.193 76.79 118.392C76.468 118.586 76.307 118.847 76.307 119.173C76.307 119.434 76.4112 119.654 76.6195 119.834C76.8278 120.014 77.1853 120.158 77.6919 120.267L79.6664 120.665C80.727 120.883 81.5177 121.233 82.0385 121.716C82.5594 122.199 82.8198 122.833 82.8198 123.619C82.8198 124.334 82.6091 124.962 82.1877 125.501C81.771 126.041 81.1981 126.463 80.4689 126.766C79.7445 127.064 78.9088 127.213 77.9618 127.213C76.5177 127.213 75.3671 126.912 74.5101 126.311C73.6578 125.705 73.1583 124.881 73.0115 123.839L75.9874 123.683C76.0774 124.124 76.2952 124.46 76.6408 124.692C76.9864 124.919 77.4292 125.033 77.9689 125.033C78.4992 125.033 78.9254 124.931 79.2473 124.727C79.574 124.519 79.7398 124.251 79.7445 123.925C79.7398 123.65 79.6238 123.425 79.3965 123.25C79.1692 123.07 78.8188 122.933 78.3453 122.838L76.4561 122.462C75.3908 122.249 74.5977 121.879 74.0769 121.354C73.5608 120.828 73.3027 120.158 73.3027 119.344C73.3027 118.643 73.4921 118.039 73.8709 117.533C74.2544 117.026 74.7918 116.635 75.4831 116.361C76.1792 116.086 76.9935 115.949 77.9263 115.949C79.3042 115.949 80.3884 116.24 81.1792 116.822C81.9746 117.405 82.4386 118.198 82.5712 119.202ZM89.6539 127.213C88.5507 127.213 87.5967 126.979 86.7917 126.51C85.9915 126.036 85.3736 125.378 84.938 124.536C84.5024 123.688 84.2846 122.705 84.2846 121.588C84.2846 120.461 84.5024 119.476 84.938 118.634C85.3736 117.786 85.9915 117.128 86.7917 116.659C87.5967 116.186 88.5507 115.949 89.6539 115.949C90.7572 115.949 91.7089 116.186 92.5091 116.659C93.314 117.128 93.9342 117.786 94.3699 118.634C94.8055 119.476 95.0233 120.461 95.0233 121.588C95.0233 122.705 94.8055 123.688 94.3699 124.536C93.9342 125.378 93.314 126.036 92.5091 126.51C91.7089 126.979 90.7572 127.213 89.6539 127.213ZM89.6681 124.869C90.17 124.869 90.5891 124.727 90.9252 124.443C91.2614 124.154 91.5147 123.761 91.6852 123.264C91.8604 122.767 91.948 122.201 91.948 121.567C91.948 120.932 91.8604 120.366 91.6852 119.869C91.5147 119.372 91.2614 118.979 90.9252 118.69C90.5891 118.402 90.17 118.257 89.6681 118.257C89.1615 118.257 88.7354 118.402 88.3897 118.69C88.0488 118.979 87.7908 119.372 87.6156 119.869C87.4451 120.366 87.3599 120.932 87.3599 121.567C87.3599 122.201 87.4451 122.767 87.6156 123.264C87.7908 123.761 88.0488 124.154 88.3897 124.443C88.7354 124.727 89.1615 124.869 89.6681 124.869ZM100.016 120.693V127H96.9906V116.091H99.8741V118.016H100.002C100.243 117.381 100.648 116.879 101.216 116.51C101.785 116.136 102.474 115.949 103.283 115.949C104.041 115.949 104.701 116.115 105.265 116.446C105.828 116.777 106.266 117.251 106.579 117.866C106.891 118.477 107.047 119.206 107.047 120.054V127H104.022V120.594C104.027 119.926 103.856 119.405 103.51 119.031C103.165 118.652 102.689 118.463 102.083 118.463C101.676 118.463 101.316 118.551 101.003 118.726C100.696 118.901 100.454 119.157 100.279 119.493C100.108 119.824 100.021 120.224 100.016 120.693ZM112.543 127.206C111.847 127.206 111.227 127.085 110.682 126.844C110.137 126.598 109.707 126.235 109.389 125.757C109.077 125.274 108.921 124.673 108.921 123.953C108.921 123.347 109.032 122.838 109.254 122.426C109.477 122.014 109.78 121.683 110.164 121.432C110.547 121.181 110.983 120.991 111.47 120.864C111.963 120.736 112.479 120.646 113.019 120.594C113.653 120.527 114.164 120.466 114.553 120.409C114.941 120.348 115.223 120.258 115.398 120.139C115.573 120.021 115.661 119.846 115.661 119.614V119.571C115.661 119.121 115.519 118.773 115.235 118.527C114.955 118.281 114.557 118.158 114.041 118.158C113.497 118.158 113.064 118.278 112.742 118.52C112.42 118.757 112.207 119.055 112.102 119.415L109.304 119.188C109.446 118.525 109.726 117.952 110.142 117.469C110.559 116.981 111.096 116.607 111.754 116.347C112.417 116.081 113.184 115.949 114.056 115.949C114.662 115.949 115.242 116.02 115.796 116.162C116.354 116.304 116.849 116.524 117.28 116.822C117.716 117.121 118.059 117.504 118.31 117.973C118.561 118.437 118.686 118.993 118.686 119.642V127H115.817V125.487H115.732C115.557 125.828 115.322 126.129 115.029 126.389C114.735 126.645 114.382 126.846 113.97 126.993C113.558 127.135 113.083 127.206 112.543 127.206ZM113.409 125.118C113.854 125.118 114.247 125.03 114.588 124.855C114.929 124.675 115.197 124.434 115.391 124.131C115.585 123.828 115.682 123.484 115.682 123.101V121.943C115.587 122.005 115.457 122.062 115.291 122.114C115.13 122.161 114.948 122.206 114.744 122.249C114.541 122.286 114.337 122.322 114.134 122.355C113.93 122.384 113.745 122.41 113.58 122.433C113.225 122.485 112.914 122.568 112.649 122.682C112.384 122.795 112.178 122.949 112.031 123.143C111.885 123.333 111.811 123.57 111.811 123.854C111.811 124.266 111.96 124.58 112.259 124.798C112.562 125.011 112.945 125.118 113.409 125.118ZM124.059 112.455V127H121.034V112.455H124.059ZM126.483 127V116.091H129.508V127H126.483ZM128.003 114.685C127.553 114.685 127.167 114.536 126.845 114.237C126.528 113.934 126.369 113.572 126.369 113.151C126.369 112.734 126.528 112.376 126.845 112.078C127.167 111.775 127.553 111.624 128.003 111.624C128.452 111.624 128.836 111.775 129.153 112.078C129.475 112.376 129.636 112.734 129.636 113.151C129.636 113.572 129.475 113.934 129.153 114.237C128.836 114.536 128.452 114.685 128.003 114.685ZM141.009 119.202L138.239 119.372C138.191 119.135 138.09 118.922 137.933 118.733C137.777 118.539 137.571 118.385 137.316 118.271C137.065 118.153 136.764 118.094 136.414 118.094C135.945 118.094 135.549 118.193 135.227 118.392C134.905 118.586 134.744 118.847 134.744 119.173C134.744 119.434 134.849 119.654 135.057 119.834C135.265 120.014 135.623 120.158 136.129 120.267L138.104 120.665C139.164 120.883 139.955 121.233 140.476 121.716C140.997 122.199 141.257 122.833 141.257 123.619C141.257 124.334 141.047 124.962 140.625 125.501C140.209 126.041 139.636 126.463 138.906 126.766C138.182 127.064 137.346 127.213 136.399 127.213C134.955 127.213 133.805 126.912 132.948 126.311C132.095 125.705 131.596 124.881 131.449 123.839L134.425 123.683C134.515 124.124 134.733 124.46 135.078 124.692C135.424 124.919 135.867 125.033 136.406 125.033C136.937 125.033 137.363 124.931 137.685 124.727C138.012 124.519 138.177 124.251 138.182 123.925C138.177 123.65 138.061 123.425 137.834 123.25C137.607 123.07 137.256 122.933 136.783 122.838L134.894 122.462C133.828 122.249 133.035 121.879 132.514 121.354C131.998 120.828 131.74 120.158 131.74 119.344C131.74 118.643 131.93 118.039 132.308 117.533C132.692 117.026 133.229 116.635 133.921 116.361C134.617 116.086 135.431 115.949 136.364 115.949C137.742 115.949 138.826 116.24 139.617 116.822C140.412 117.405 140.876 118.198 141.009 119.202ZM148.134 127.213C147.012 127.213 146.046 126.986 145.236 126.531C144.431 126.072 143.811 125.423 143.376 124.585C142.94 123.742 142.722 122.746 142.722 121.595C142.722 120.473 142.94 119.488 143.376 118.641C143.811 117.793 144.424 117.133 145.215 116.659C146.01 116.186 146.943 115.949 148.013 115.949C148.733 115.949 149.403 116.065 150.023 116.297C150.648 116.524 151.193 116.867 151.657 117.327C152.126 117.786 152.49 118.364 152.751 119.06C153.011 119.751 153.141 120.561 153.141 121.489V122.32H143.93V120.445H150.293C150.293 120.009 150.198 119.623 150.009 119.287C149.82 118.951 149.557 118.688 149.221 118.499C148.889 118.304 148.503 118.207 148.063 118.207C147.604 118.207 147.197 118.314 146.841 118.527C146.491 118.735 146.216 119.017 146.018 119.372C145.819 119.723 145.717 120.113 145.712 120.544V122.327C145.712 122.866 145.812 123.333 146.01 123.726C146.214 124.119 146.501 124.422 146.87 124.635C147.239 124.848 147.677 124.955 148.184 124.955C148.52 124.955 148.828 124.907 149.107 124.812C149.386 124.718 149.626 124.576 149.824 124.386C150.023 124.197 150.175 123.965 150.279 123.69L153.077 123.875C152.935 124.547 152.644 125.134 152.204 125.636C151.768 126.134 151.205 126.522 150.513 126.801C149.827 127.076 149.034 127.213 148.134 127.213ZM159.135 127.178C158.307 127.178 157.556 126.964 156.884 126.538C156.216 126.107 155.686 125.475 155.293 124.642C154.905 123.804 154.711 122.777 154.711 121.56C154.711 120.31 154.912 119.27 155.314 118.442C155.717 117.608 156.252 116.986 156.92 116.574C157.592 116.157 158.328 115.949 159.128 115.949C159.739 115.949 160.248 116.053 160.655 116.261C161.067 116.465 161.399 116.721 161.65 117.028C161.905 117.331 162.099 117.63 162.232 117.923H162.324V112.455H165.343V127H162.36V125.253H162.232C162.09 125.556 161.889 125.857 161.628 126.155C161.373 126.448 161.039 126.692 160.627 126.886C160.22 127.08 159.723 127.178 159.135 127.178ZM160.094 124.77C160.582 124.77 160.994 124.637 161.33 124.372C161.671 124.102 161.931 123.726 162.111 123.243C162.296 122.76 162.388 122.194 162.388 121.545C162.388 120.897 162.298 120.333 162.118 119.855C161.939 119.377 161.678 119.008 161.337 118.747C160.996 118.487 160.582 118.357 160.094 118.357C159.597 118.357 159.178 118.491 158.837 118.761C158.496 119.031 158.238 119.405 158.063 119.884C157.888 120.362 157.8 120.916 157.8 121.545C157.8 122.18 157.888 122.741 158.063 123.229C158.243 123.712 158.501 124.09 158.837 124.365C159.178 124.635 159.597 124.77 160.094 124.77ZM60.7557 151H57.4602L62.4815 136.455H66.4446L71.4588 151H68.1634L64.5199 139.778H64.4062L60.7557 151ZM60.5497 145.283H68.3338V147.683H60.5497V145.283ZM78.2717 140.091V142.364H71.7021V140.091H78.2717ZM73.1935 137.477H76.2191V147.648C76.2191 147.927 76.2617 148.145 76.3469 148.301C76.4322 148.453 76.5505 148.559 76.7021 148.621C76.8583 148.682 77.0382 148.713 77.2418 148.713C77.3839 148.713 77.5259 148.701 77.668 148.678C77.81 148.649 77.9189 148.628 77.9947 148.614L78.4705 150.865C78.319 150.912 78.1059 150.967 77.8313 151.028C77.5567 151.095 77.2229 151.135 76.8299 151.149C76.1007 151.178 75.4615 151.08 74.9123 150.858C74.3678 150.635 73.944 150.29 73.641 149.821C73.3379 149.352 73.1888 148.76 73.1935 148.045V137.477ZM86.0451 140.091V142.364H79.4755V140.091H86.0451ZM80.967 137.477H83.9925V147.648C83.9925 147.927 84.0352 148.145 84.1204 148.301C84.2056 148.453 84.324 148.559 84.4755 148.621C84.6317 148.682 84.8117 148.713 85.0153 148.713C85.1573 148.713 85.2994 148.701 85.4414 148.678C85.5835 148.649 85.6924 148.628 85.7681 148.614L86.244 150.865C86.0924 150.912 85.8794 150.967 85.6048 151.028C85.3301 151.095 84.9963 151.135 84.6033 151.149C83.8742 151.178 83.235 151.08 82.6857 150.858C82.1412 150.635 81.7174 150.29 81.4144 149.821C81.1114 149.352 80.9622 148.76 80.967 148.045V137.477ZM92.8704 151.213C91.7482 151.213 90.7823 150.986 89.9727 150.531C89.1677 150.072 88.5475 149.423 88.1119 148.585C87.6763 147.742 87.4585 146.746 87.4585 145.595C87.4585 144.473 87.6763 143.488 88.1119 142.641C88.5475 141.793 89.1606 141.133 89.9513 140.659C90.7468 140.186 91.6796 139.949 92.7496 139.949C93.4693 139.949 94.1393 140.065 94.7596 140.297C95.3846 140.524 95.9291 140.867 96.3931 141.327C96.8619 141.786 97.2264 142.364 97.4869 143.06C97.7473 143.751 97.8775 144.561 97.8775 145.489V146.32H88.6658V144.445H95.0295C95.0295 144.009 94.9348 143.623 94.7454 143.287C94.556 142.951 94.2932 142.688 93.957 142.499C93.6256 142.304 93.2397 142.207 92.7994 142.207C92.3401 142.207 91.9329 142.314 91.5778 142.527C91.2274 142.735 90.9528 143.017 90.7539 143.372C90.555 143.723 90.4532 144.113 90.4485 144.544V146.327C90.4485 146.866 90.5479 147.333 90.7468 147.726C90.9504 148.119 91.2369 148.422 91.6062 148.635C91.9755 148.848 92.4135 148.955 92.9201 148.955C93.2563 148.955 93.564 148.907 93.8434 148.812C94.1228 148.718 94.3619 148.576 94.5607 148.386C94.7596 148.197 94.9111 147.965 95.0153 147.69L97.8136 147.875C97.6715 148.547 97.3803 149.134 96.94 149.636C96.5044 150.134 95.9409 150.522 95.2496 150.801C94.5631 151.076 93.77 151.213 92.8704 151.213ZM102.877 144.693V151H99.8519V140.091H102.735V142.016H102.863C103.105 141.381 103.51 140.879 104.078 140.51C104.646 140.136 105.335 139.949 106.145 139.949C106.902 139.949 107.563 140.115 108.126 140.446C108.69 140.777 109.127 141.251 109.44 141.866C109.752 142.477 109.909 143.206 109.909 144.054V151H106.883V144.594C106.888 143.926 106.717 143.405 106.372 143.031C106.026 142.652 105.55 142.463 104.944 142.463C104.537 142.463 104.177 142.551 103.865 142.726C103.557 142.901 103.315 143.157 103.14 143.493C102.97 143.824 102.882 144.224 102.877 144.693ZM118.096 140.091V142.364H111.526V140.091H118.096ZM113.018 137.477H116.043V147.648C116.043 147.927 116.086 148.145 116.171 148.301C116.256 148.453 116.375 148.559 116.526 148.621C116.683 148.682 116.862 148.713 117.066 148.713C117.208 148.713 117.35 148.701 117.492 148.678C117.634 148.649 117.743 148.628 117.819 148.614L118.295 150.865C118.143 150.912 117.93 150.967 117.656 151.028C117.381 151.095 117.047 151.135 116.654 151.149C115.925 151.178 115.286 151.08 114.737 150.858C114.192 150.635 113.768 150.29 113.465 149.821C113.162 149.352 113.013 148.76 113.018 148.045V137.477ZM120.067 151V140.091H123.092V151H120.067ZM121.587 138.685C121.137 138.685 120.751 138.536 120.429 138.237C120.112 137.934 119.953 137.572 119.953 137.151C119.953 136.734 120.112 136.376 120.429 136.078C120.751 135.775 121.137 135.624 121.587 135.624C122.036 135.624 122.42 135.775 122.737 136.078C123.059 136.376 123.22 136.734 123.22 137.151C123.22 137.572 123.059 137.934 122.737 138.237C122.42 138.536 122.036 138.685 121.587 138.685ZM130.445 151.213C129.342 151.213 128.388 150.979 127.583 150.51C126.783 150.036 126.165 149.378 125.729 148.536C125.293 147.688 125.076 146.705 125.076 145.588C125.076 144.461 125.293 143.476 125.729 142.634C126.165 141.786 126.783 141.128 127.583 140.659C128.388 140.186 129.342 139.949 130.445 139.949C131.548 139.949 132.5 140.186 133.3 140.659C134.105 141.128 134.725 141.786 135.161 142.634C135.596 143.476 135.814 144.461 135.814 145.588C135.814 146.705 135.596 147.688 135.161 148.536C134.725 149.378 134.105 150.036 133.3 150.51C132.5 150.979 131.548 151.213 130.445 151.213ZM130.459 148.869C130.961 148.869 131.38 148.727 131.716 148.443C132.052 148.154 132.306 147.761 132.476 147.264C132.651 146.767 132.739 146.201 132.739 145.567C132.739 144.932 132.651 144.366 132.476 143.869C132.306 143.372 132.052 142.979 131.716 142.69C131.38 142.402 130.961 142.257 130.459 142.257C129.953 142.257 129.526 142.402 129.181 142.69C128.84 142.979 128.582 143.372 128.407 143.869C128.236 144.366 128.151 144.932 128.151 145.567C128.151 146.201 128.236 146.767 128.407 147.264C128.582 147.761 128.84 148.154 129.181 148.443C129.526 148.727 129.953 148.869 130.459 148.869ZM140.807 144.693V151H137.782V140.091H140.665V142.016H140.793C141.034 141.381 141.439 140.879 142.007 140.51C142.576 140.136 143.265 139.949 144.074 139.949C144.832 139.949 145.492 140.115 146.056 140.446C146.619 140.777 147.057 141.251 147.37 141.866C147.682 142.477 147.838 143.206 147.838 144.054V151H144.813V144.594C144.818 143.926 144.647 143.405 144.301 143.031C143.956 142.652 143.48 142.463 142.874 142.463C142.467 142.463 142.107 142.551 141.794 142.726C141.487 142.901 141.245 143.157 141.07 143.493C140.9 143.824 140.812 144.224 140.807 144.693Z" fill="#004D37"/>
</g>
<defs>
<clipPath id="clip0_1624_593">
<rect width="205" height="156" fill="white" transform="translate(0.5)"/>
</clipPath>
</defs>
</svg>
