<svg width="206" height="132" viewBox="0 0 206 132" fill="none" xmlns="http://www.w3.org/2000/svg">
<path fill-rule="evenodd" clip-rule="evenodd" d="M62.8334 82.7779H103.911C107.934 90.0631 115.695 95 124.599 95C137.631 95 148.21 84.4202 148.21 71.3887C148.21 65.0781 145.729 59.3429 141.69 55.1066V9.83267C141.69 7.15854 139.527 5 136.857 5H62.8327C60.1667 5 58 7.15864 58 9.83267V77.9447C58 79.2294 58.5074 80.4536 59.4136 81.3638C60.3237 82.2699 61.5527 82.7779 62.8334 82.7779ZM124.599 50.9993C135.851 50.9993 144.988 60.1371 144.988 71.3887C144.988 82.6449 135.85 91.7782 124.599 91.7782C113.343 91.7782 104.209 82.6445 104.209 71.3887C104.209 60.1367 113.343 50.9993 124.599 50.9993ZM61.222 42.7475V77.9458C61.222 78.3727 61.3911 78.7835 61.6932 79.0855C61.9952 79.3876 62.406 79.5567 62.8329 79.5567H67.9797V75.1872C67.9797 71.901 69.6913 69.0134 72.2687 67.3623C70.4766 65.9084 69.3329 63.6895 69.3329 61.2047C69.3329 56.8311 72.8808 53.2791 77.2584 53.2791C81.632 53.2791 85.184 56.8311 85.184 61.2047C85.184 63.6895 84.0402 65.9084 82.2481 67.3623C84.8255 69.0135 86.5371 71.901 86.5371 75.1872V79.5567H102.437C101.498 77.0115 100.987 74.2609 100.987 71.3895C100.987 58.357 111.567 47.7782 124.598 47.7782C129.777 47.7782 134.574 49.4495 138.468 52.2847V42.7482L61.222 42.7475ZM83.3156 79.5562H71.2018V75.1866C71.2018 71.84 73.9121 69.1337 77.2547 69.1337H77.2627C80.6053 69.1337 83.3157 71.84 83.3157 75.1866L83.3156 79.5562ZM77.2587 56.5006C79.8562 56.5006 81.9625 58.6109 81.9625 61.2044C81.9625 63.8019 79.8562 65.9122 77.2587 65.9122C74.6612 65.9122 72.5549 63.8019 72.5549 61.2044C72.5549 58.6109 74.6612 56.5006 77.2587 56.5006ZM138.468 39.5257V9.83277C138.468 8.94276 137.747 8.22188 136.857 8.22188H62.8329C61.9429 8.22188 61.222 8.94276 61.222 9.83277V39.5257H67.9797V35.1562C67.9797 31.8699 69.6913 28.9824 72.2687 27.3353C70.4766 25.8774 69.3328 23.6625 69.3328 21.1736C69.3328 16.8001 72.8808 13.2481 77.2584 13.2481C81.632 13.2481 85.184 16.8001 85.184 21.1736C85.184 23.6625 84.0402 25.8774 82.2481 27.3353C84.8255 28.9825 86.5371 31.8699 86.5371 35.1562V39.5257H90.5684V35.1562C90.5684 31.8699 92.2759 28.9824 94.8533 27.3353C93.0612 25.8774 91.9174 23.6625 91.9174 21.1736C91.9174 16.8001 95.4694 13.2481 99.843 13.2481C104.221 13.2481 107.773 16.8001 107.773 21.1736C107.773 23.6625 106.625 25.8774 104.837 27.3353C107.414 28.9825 109.122 31.8699 109.122 35.1562V39.5257H113.153V35.1562C113.153 31.8699 114.865 28.9824 117.442 27.3353C115.65 25.8774 114.502 23.6625 114.502 21.1736C114.502 16.8001 118.058 13.2481 122.432 13.2481C126.809 13.2481 130.357 16.8001 130.357 21.1736C130.357 23.6625 129.213 25.8774 127.421 27.3353C129.999 28.9825 131.706 31.8699 131.706 35.1562V39.5257H138.468ZM83.3156 39.5257H71.2018V35.1562C71.2018 31.8135 73.9121 29.1032 77.2547 29.1032H77.2627C80.6053 29.1032 83.3157 31.8135 83.3157 35.1562L83.3156 39.5257ZM105.9 39.5257H93.7903V35.1562C93.7903 31.8135 96.4966 29.1032 99.8432 29.1032H99.8513C103.194 29.1032 105.9 31.8135 105.9 35.1562L105.9 39.5257ZM128.484 39.5257H116.375V35.1562C116.375 31.8135 119.085 29.1032 122.428 29.1032H122.436C125.778 29.1032 128.485 31.8135 128.485 35.1562L128.484 39.5257ZM77.2577 16.4702C79.8552 16.4702 81.9615 18.5804 81.9615 21.1739C81.9615 23.7715 79.8552 25.8818 77.2577 25.8818C74.6601 25.8818 72.5539 23.7715 72.5539 21.1739C72.5539 18.5804 74.6601 16.4702 77.2577 16.4702ZM99.8421 16.4702C102.44 16.4702 104.55 18.5804 104.55 21.1739C104.55 23.7715 102.44 25.8818 99.8421 25.8818C97.2486 25.8818 95.1383 23.7715 95.1383 21.1739C95.1383 18.5804 97.2486 16.4702 99.8421 16.4702ZM122.431 16.4702C125.028 16.4702 127.134 18.5804 127.134 21.1739C127.134 23.7715 125.028 25.8818 122.431 25.8818C119.833 25.8818 117.723 23.7715 117.723 21.1739C117.723 18.5804 119.833 16.4702 122.431 16.4702Z" fill="#004D37"/>
<path fill-rule="evenodd" clip-rule="evenodd" d="M122.986 60.3905V71.3888C122.986 71.6425 123.043 71.8882 123.155 72.1097L128.657 83.1122C129.055 83.9056 130.022 84.2277 130.815 83.8331C131.613 83.4344 131.935 82.4679 131.536 81.6704L126.208 71.0102V60.3902C126.208 59.5002 125.483 58.7793 124.597 58.7793C123.707 58.7793 122.986 59.5004 122.986 60.3905Z" fill="#004D37"/>
<path d="M42.9751 116.638C42.9183 116.065 42.6745 115.62 42.2436 115.303C41.8127 114.985 41.228 114.827 40.4893 114.827C39.9875 114.827 39.5637 114.898 39.218 115.04C38.8724 115.177 38.6072 115.369 38.4226 115.615C38.2427 115.861 38.1527 116.141 38.1527 116.453C38.1432 116.714 38.1977 116.941 38.3161 117.135C38.4392 117.329 38.6072 117.497 38.8203 117.639C39.0334 117.777 39.2796 117.897 39.5589 118.001C39.8383 118.101 40.1366 118.186 40.4538 118.257L41.7607 118.57C42.3951 118.712 42.9775 118.901 43.5078 119.138C44.0381 119.375 44.4974 119.666 44.8857 120.011C45.2739 120.357 45.5746 120.764 45.7876 121.233C46.0054 121.702 46.1167 122.239 46.1214 122.845C46.1167 123.735 45.8894 124.507 45.4396 125.161C44.9946 125.809 44.3506 126.313 43.5078 126.673C42.6697 127.028 41.6589 127.206 40.4751 127.206C39.3009 127.206 38.2782 127.026 37.407 126.666C36.5405 126.306 35.8634 125.774 35.3757 125.068C34.8928 124.358 34.6394 123.48 34.6158 122.433H37.5916C37.6248 122.921 37.7644 123.328 38.0107 123.655C38.2616 123.977 38.5954 124.221 39.0121 124.386C39.4335 124.547 39.9093 124.628 40.4396 124.628C40.9605 124.628 41.4126 124.552 41.7962 124.401C42.1844 124.249 42.4851 124.038 42.6982 123.768C42.9112 123.499 43.0178 123.188 43.0178 122.838C43.0178 122.511 42.9207 122.237 42.7266 122.014C42.5372 121.792 42.2578 121.602 41.8885 121.446C41.5239 121.29 41.0765 121.148 40.5462 121.02L38.9624 120.622C37.736 120.324 36.7678 119.857 36.0575 119.223C35.3473 118.589 34.9946 117.734 34.9993 116.659C34.9946 115.778 35.2289 115.009 35.7024 114.351C36.1806 113.693 36.8364 113.179 37.6697 112.81C38.5031 112.44 39.45 112.256 40.5107 112.256C41.5902 112.256 42.5324 112.44 43.3374 112.81C44.147 113.179 44.7768 113.693 45.2266 114.351C45.6764 115.009 45.9084 115.771 45.9226 116.638H42.9751ZM48.1332 127V116.091H51.0167V118.016H51.1445C51.3718 117.376 51.7506 116.872 52.2809 116.503C52.8112 116.134 53.4457 115.949 54.1843 115.949C54.9324 115.949 55.5692 116.136 56.0948 116.51C56.6204 116.879 56.9708 117.381 57.146 118.016H57.2596C57.4821 117.391 57.8846 116.891 58.467 116.517C59.0541 116.138 59.7478 115.949 60.5479 115.949C61.5659 115.949 62.3922 116.273 63.0266 116.922C63.6658 117.566 63.9854 118.48 63.9854 119.663V127H60.967V120.26C60.967 119.654 60.806 119.199 60.484 118.896C60.1621 118.593 59.7596 118.442 59.2766 118.442C58.7274 118.442 58.2989 118.617 57.9911 118.967C57.6834 119.313 57.5295 119.77 57.5295 120.338V127H54.5962V120.196C54.5962 119.661 54.4424 119.235 54.1346 118.918C53.8316 118.6 53.4315 118.442 52.9343 118.442C52.5981 118.442 52.2951 118.527 52.0252 118.697C51.7601 118.863 51.5494 119.098 51.3931 119.401C51.2369 119.699 51.1587 120.049 51.1587 120.452V127H48.1332ZM69.4862 127.206C68.7901 127.206 68.1699 127.085 67.6254 126.844C67.0808 126.598 66.65 126.235 66.3327 125.757C66.0202 125.274 65.864 124.673 65.864 123.953C65.864 123.347 65.9753 122.838 66.1978 122.426C66.4203 122.014 66.7234 121.683 67.1069 121.432C67.4904 121.181 67.926 120.991 68.4137 120.864C68.9061 120.736 69.4222 120.646 69.962 120.594C70.5965 120.527 71.1078 120.466 71.4961 120.409C71.8844 120.348 72.1661 120.258 72.3413 120.139C72.5165 120.021 72.604 119.846 72.604 119.614V119.571C72.604 119.121 72.462 118.773 72.1779 118.527C71.8986 118.281 71.5008 118.158 70.9847 118.158C70.4402 118.158 70.007 118.278 69.685 118.52C69.363 118.757 69.15 119.055 69.0458 119.415L66.2475 119.188C66.3896 118.525 66.6689 117.952 67.0856 117.469C67.5022 116.981 68.0397 116.607 68.6978 116.347C69.3607 116.081 70.1277 115.949 70.9989 115.949C71.605 115.949 72.185 116.02 72.739 116.162C73.2977 116.304 73.7925 116.524 74.2234 116.822C74.659 117.121 75.0022 117.504 75.2532 117.973C75.5041 118.437 75.6296 118.993 75.6296 119.642V127H72.7603V125.487H72.6751C72.4999 125.828 72.2655 126.129 71.9719 126.389C71.6784 126.645 71.3256 126.846 70.9137 126.993C70.5018 127.135 70.0259 127.206 69.4862 127.206ZM70.3526 125.118C70.7977 125.118 71.1907 125.03 71.5316 124.855C71.8725 124.675 72.14 124.434 72.3342 124.131C72.5283 123.828 72.6254 123.484 72.6254 123.101V121.943C72.5307 122.005 72.4005 122.062 72.2347 122.114C72.0737 122.161 71.8915 122.206 71.6879 122.249C71.4843 122.286 71.2807 122.322 71.0771 122.355C70.8735 122.384 70.6888 122.41 70.5231 122.433C70.168 122.485 69.8578 122.568 69.5927 122.682C69.3275 122.795 69.1216 122.949 68.9748 123.143C68.828 123.333 68.7546 123.57 68.7546 123.854C68.7546 124.266 68.9038 124.58 69.2021 124.798C69.5051 125.011 69.8886 125.118 70.3526 125.118ZM81.0025 112.455V127H77.9769V112.455H81.0025ZM86.4517 112.455V127H83.4261V112.455H86.4517ZM93.5611 127V112.455H99.3849C100.455 112.455 101.348 112.613 102.062 112.93C102.777 113.248 103.315 113.688 103.675 114.251C104.035 114.81 104.214 115.454 104.214 116.183C104.214 116.751 104.101 117.251 103.874 117.682C103.646 118.108 103.334 118.458 102.936 118.733C102.543 119.003 102.093 119.195 101.587 119.308V119.45C102.141 119.474 102.659 119.63 103.142 119.919C103.63 120.208 104.025 120.613 104.328 121.134C104.631 121.65 104.783 122.265 104.783 122.98C104.783 123.752 104.591 124.441 104.207 125.047C103.829 125.648 103.268 126.124 102.524 126.474C101.781 126.825 100.865 127 99.7756 127H93.5611ZM96.6364 124.486H99.1435C100 124.486 100.625 124.322 101.018 123.996C101.411 123.664 101.608 123.224 101.608 122.675C101.608 122.272 101.511 121.917 101.317 121.609C101.123 121.302 100.846 121.06 100.486 120.885C100.131 120.71 99.7069 120.622 99.2145 120.622H96.6364V124.486ZM96.6364 118.541H98.9162C99.3376 118.541 99.7116 118.468 100.038 118.321C100.37 118.17 100.63 117.956 100.82 117.682C101.014 117.407 101.111 117.078 101.111 116.695C101.111 116.169 100.924 115.745 100.55 115.423C100.18 115.101 99.6548 114.94 98.973 114.94H96.6364V118.541ZM109.838 127.206C109.142 127.206 108.521 127.085 107.977 126.844C107.432 126.598 107.002 126.235 106.684 125.757C106.372 125.274 106.216 124.673 106.216 123.953C106.216 123.347 106.327 122.838 106.549 122.426C106.772 122.014 107.075 121.683 107.458 121.432C107.842 121.181 108.278 120.991 108.765 120.864C109.258 120.736 109.774 120.646 110.314 120.594C110.948 120.527 111.459 120.466 111.848 120.409C112.236 120.348 112.518 120.258 112.693 120.139C112.868 120.021 112.956 119.846 112.956 119.614V119.571C112.956 119.121 112.814 118.773 112.529 118.527C112.25 118.281 111.852 118.158 111.336 118.158C110.792 118.158 110.359 118.278 110.037 118.52C109.715 118.757 109.502 119.055 109.397 119.415L106.599 119.188C106.741 118.525 107.02 117.952 107.437 117.469C107.854 116.981 108.391 116.607 109.049 116.347C109.712 116.081 110.479 115.949 111.35 115.949C111.957 115.949 112.537 116.02 113.091 116.162C113.649 116.304 114.144 116.524 114.575 116.822C115.011 117.121 115.354 117.504 115.605 117.973C115.856 118.437 115.981 118.993 115.981 119.642V127H113.112V125.487H113.027C112.851 125.828 112.617 126.129 112.324 126.389C112.03 126.645 111.677 126.846 111.265 126.993C110.853 127.135 110.377 127.206 109.838 127.206ZM110.704 125.118C111.149 125.118 111.542 125.03 111.883 124.855C112.224 124.675 112.492 124.434 112.686 124.131C112.88 123.828 112.977 123.484 112.977 123.101V121.943C112.882 122.005 112.752 122.062 112.586 122.114C112.425 122.161 112.243 122.206 112.039 122.249C111.836 122.286 111.632 122.322 111.429 122.355C111.225 122.384 111.04 122.41 110.875 122.433C110.52 122.485 110.209 122.568 109.944 122.682C109.679 122.795 109.473 122.949 109.326 123.143C109.18 123.333 109.106 123.57 109.106 123.854C109.106 124.266 109.255 124.58 109.554 124.798C109.857 125.011 110.24 125.118 110.704 125.118ZM124.131 116.091V118.364H117.561V116.091H124.131ZM119.053 113.477H122.078V123.648C122.078 123.927 122.121 124.145 122.206 124.301C122.292 124.453 122.41 124.559 122.561 124.621C122.718 124.682 122.898 124.713 123.101 124.713C123.243 124.713 123.385 124.701 123.527 124.678C123.669 124.649 123.778 124.628 123.854 124.614L124.33 126.865C124.178 126.912 123.965 126.967 123.691 127.028C123.416 127.095 123.082 127.135 122.689 127.149C121.96 127.178 121.321 127.08 120.772 126.858C120.227 126.635 119.803 126.29 119.5 125.821C119.197 125.352 119.048 124.76 119.053 124.045V113.477ZM130.914 127.213C129.796 127.213 128.835 126.976 128.03 126.503C127.23 126.025 126.614 125.362 126.184 124.514C125.757 123.667 125.544 122.691 125.544 121.588C125.544 120.471 125.76 119.491 126.191 118.648C126.626 117.8 127.244 117.14 128.044 116.666C128.845 116.188 129.796 115.949 130.9 115.949C131.851 115.949 132.685 116.122 133.4 116.467C134.114 116.813 134.68 117.298 135.097 117.923C135.514 118.548 135.743 119.282 135.786 120.125H132.931C132.85 119.58 132.637 119.143 132.292 118.811C131.951 118.475 131.503 118.307 130.949 118.307C130.48 118.307 130.071 118.435 129.721 118.69C129.375 118.941 129.105 119.308 128.911 119.791C128.717 120.274 128.62 120.859 128.62 121.545C128.62 122.241 128.714 122.833 128.904 123.321C129.098 123.809 129.37 124.18 129.721 124.436C130.071 124.692 130.48 124.82 130.949 124.82C131.295 124.82 131.605 124.749 131.88 124.607C132.159 124.464 132.389 124.259 132.569 123.989C132.753 123.714 132.874 123.385 132.931 123.001H135.786C135.739 123.835 135.511 124.569 135.104 125.203C134.702 125.833 134.145 126.325 133.435 126.68C132.725 127.036 131.884 127.213 130.914 127.213ZM140.749 120.693V127H137.723V112.455H140.663V118.016H140.791C141.037 117.372 141.435 116.867 141.984 116.503C142.534 116.134 143.223 115.949 144.051 115.949C144.809 115.949 145.469 116.115 146.033 116.446C146.601 116.773 147.041 117.244 147.354 117.859C147.671 118.47 147.827 119.202 147.822 120.054V127H144.797V120.594C144.802 119.921 144.631 119.398 144.286 119.024C143.945 118.65 143.466 118.463 142.851 118.463C142.439 118.463 142.074 118.551 141.757 118.726C141.445 118.901 141.198 119.157 141.018 119.493C140.843 119.824 140.753 120.224 140.749 120.693ZM155.175 127.213C154.053 127.213 153.087 126.986 152.277 126.531C151.472 126.072 150.852 125.423 150.417 124.585C149.981 123.742 149.763 122.746 149.763 121.595C149.763 120.473 149.981 119.488 150.417 118.641C150.852 117.793 151.465 117.133 152.256 116.659C153.051 116.186 153.984 115.949 155.054 115.949C155.774 115.949 156.444 116.065 157.064 116.297C157.689 116.524 158.234 116.867 158.698 117.327C159.167 117.786 159.531 118.364 159.792 119.06C160.052 119.751 160.182 120.561 160.182 121.489V122.32H150.971V120.445H157.334C157.334 120.009 157.239 119.623 157.05 119.287C156.861 118.951 156.598 118.688 156.262 118.499C155.93 118.304 155.544 118.207 155.104 118.207C154.645 118.207 154.238 118.314 153.882 118.527C153.532 118.735 153.257 119.017 153.059 119.372C152.86 119.723 152.758 120.113 152.753 120.544V122.327C152.753 122.866 152.853 123.333 153.051 123.726C153.255 124.119 153.542 124.422 153.911 124.635C154.28 124.848 154.718 124.955 155.225 124.955C155.561 124.955 155.869 124.907 156.148 124.812C156.427 124.718 156.667 124.576 156.865 124.386C157.064 124.197 157.216 123.965 157.32 123.69L160.118 123.875C159.976 124.547 159.685 125.134 159.245 125.636C158.809 126.134 158.246 126.522 157.554 126.801C156.868 127.076 156.075 127.213 155.175 127.213ZM171.233 119.202L168.463 119.372C168.416 119.135 168.314 118.922 168.158 118.733C168.002 118.539 167.796 118.385 167.54 118.271C167.289 118.153 166.989 118.094 166.638 118.094C166.169 118.094 165.774 118.193 165.452 118.392C165.13 118.586 164.969 118.847 164.969 119.173C164.969 119.434 165.073 119.654 165.282 119.834C165.49 120.014 165.847 120.158 166.354 120.267L168.328 120.665C169.389 120.883 170.18 121.233 170.701 121.716C171.221 122.199 171.482 122.833 171.482 123.619C171.482 124.334 171.271 124.962 170.85 125.501C170.433 126.041 169.86 126.463 169.131 126.766C168.407 127.064 167.571 127.213 166.624 127.213C165.18 127.213 164.029 126.912 163.172 126.311C162.32 125.705 161.82 124.881 161.674 123.839L164.65 123.683C164.739 124.124 164.957 124.46 165.303 124.692C165.649 124.919 166.091 125.033 166.631 125.033C167.161 125.033 167.587 124.931 167.909 124.727C168.236 124.519 168.402 124.251 168.407 123.925C168.402 123.65 168.286 123.425 168.059 123.25C167.831 123.07 167.481 122.933 167.007 122.838L165.118 122.462C164.053 122.249 163.26 121.879 162.739 121.354C162.223 120.828 161.965 120.158 161.965 119.344C161.965 118.643 162.154 118.039 162.533 117.533C162.917 117.026 163.454 116.635 164.145 116.361C164.841 116.086 165.656 115.949 166.588 115.949C167.966 115.949 169.051 116.24 169.841 116.822C170.637 117.405 171.101 118.198 171.233 119.202Z" fill="#004D37"/>
</svg>
